<?xml version="1.0" encoding="UTF-8" standalone="no"?>
<svg
   xmlns:dc="http://purl.org/dc/elements/1.1/"
   xmlns:cc="http://creativecommons.org/ns#"
   xmlns:rdf="http://www.w3.org/1999/02/22-rdf-syntax-ns#"
   xmlns:svg="http://www.w3.org/2000/svg"
   xmlns="http://www.w3.org/2000/svg"
   xmlns:sodipodi="http://sodipodi.sourceforge.net/DTD/sodipodi-0.dtd"
   xmlns:inkscape="http://www.inkscape.org/namespaces/inkscape"
   inkscape:version="1.0beta2 (2b71d25, 2019-12-03)"
   sodipodi:docname="vdmpp_logo.svg"
   id="svg8"
   version="1.1"
   viewBox="0 0 210 297"
   height="297mm"
   width="210mm">
  <defs
     id="defs2" />
  <sodipodi:namedview
     inkscape:snap-midpoints="true"
     inkscape:snap-intersection-paths="true"
     inkscape:bbox-nodes="false"
     inkscape:snap-bbox="false"
     inkscape:snap-smooth-nodes="true"
     inkscape:object-paths="true"
     showguides="false"
     inkscape:window-maximized="1"
     inkscape:window-y="23"
     inkscape:window-x="0"
     inkscape:window-height="949"
     inkscape:window-width="1680"
     showgrid="false"
     inkscape:document-rotation="0"
     inkscape:current-layer="layer1"
     inkscape:document-units="mm"
     inkscape:cy="847.73706"
     inkscape:cx="287.30979"
     inkscape:zoom="0.92994022"
     inkscape:pageshadow="2"
     inkscape:pageopacity="0.0"
     borderopacity="1.0"
     bordercolor="#666666"
     pagecolor="#ffffff"
     id="base" />
  <metadata
     id="metadata5">
    <rdf:RDF>
      <cc:Work
         rdf:about="">
        <dc:format>image/svg+xml</dc:format>
        <dc:type
           rdf:resource="http://purl.org/dc/dcmitype/StillImage" />
      </cc:Work>
    </rdf:RDF>
  </metadata>
  <g
     id="layer1"
     inkscape:groupmode="layer"
     inkscape:label="レイヤー 1">
    <path
       sodipodi:nodetypes="cccccccccc"
       inkscape:connector-curvature="0"
       id="path18"
       d="M 42.897286,31.829347 64.145268,102.80161 99.917191,32.110982 107.31364,31.970165 114.71009,31.829347 80.8209,123.36104 71.764575,123.0794 50.428217,122.79776 25.952692,30.139531 Z"
       style="fill:none;stroke:#000000;stroke-width:0.260918px;stroke-linecap:butt;stroke-linejoin:miter;stroke-opacity:1" />
    <path
       style="fill:none;stroke:#000000;stroke-width:0.264583px;stroke-linecap:butt;stroke-linejoin:miter;stroke-opacity:1"
       d="M 90.666198,121.12264 C 139.02302,129.0963 135.59512,92.147997 105.45807,92.655283 Z"
       id="path20-8"
       inkscape:connector-curvature="0"
       sodipodi:nodetypes="ccc" />
    <path
       sodipodi:nodetypes="ccc"
       inkscape:connector-curvature="0"
       id="path20-8-6"
       d="m 101.4577,116.57985 c 23.74166,4.99879 22.05867,-18.164583 7.26234,-17.846563 z"
       style="fill:none;stroke:#000000;stroke-width:0.146789px;stroke-linecap:butt;stroke-linejoin:miter;stroke-opacity:1" />
    <path
       sodipodi:nodetypes="ccccccccccccc"
       inkscape:connector-curvature="0"
       id="path54"
       d="m 127.5449,121.40488 6.6982,-25.955526 7.81456,-10e-7 3.6282,8.372747 8.37275,-6.977288 8.93093,-0.279091 2.51183,24.839159 -8.93094,-0.55818 -1.67455,-14.51277 -10.60548,8.37275 -4.74456,-10.88457 -5.02365,16.74549 z"
       style="fill:none;stroke:#000000;stroke-width:0.264583px;stroke-linecap:butt;stroke-linejoin:miter;stroke-opacity:1" />
    <path
       inkscape:connector-curvature="0"
       id="path56"
       d="m 106.89212,70.610195 h 8.65184 v -9.210027 h 9.21003 v 8.372751 h 9.7682 v 9.489117 l -9.7682,-0.279091 0.27909,7.256383 -9.48912,-0.558183 v -5.860926 l -8.93093,-0.558183 z"
       style="fill:none;stroke:#000000;stroke-width:0.264583px;stroke-linecap:butt;stroke-linejoin:miter;stroke-opacity:1" />
    <path
       style="fill:none;stroke:#000000;stroke-width:0.264583px;stroke-linecap:butt;stroke-linejoin:miter;stroke-opacity:1"
       d="m 136.38879,70.610195 h 8.65184 v -9.210027 h 9.21003 v 8.372751 h 9.7682 v 9.489117 l -9.7682,-0.279091 0.27909,7.256383 -9.48912,-0.558183 v -5.860926 l -8.93093,-0.558183 z"
       id="path56-0"
       inkscape:connector-curvature="0" />
    <path
       sodipodi:nodetypes="cc"
       inkscape:connector-curvature="0"
       id="path100"
       d="M 71.764575,123.0794 107.31364,31.970165"
       style="fill:none;stroke:#000000;stroke-width:0.264583px;stroke-linecap:butt;stroke-linejoin:miter;stroke-opacity:1" />
    <path
       transform="scale(0.26458333)"
       inkscape:connector-curvature="0"
       id="path102"
       d="m 285.62977,464.51773 -12.70161,-0.57731 66.66542,-170.88322 66.66541,-170.88322 12.85348,-0.29697 c 7.51601,-0.17366 12.70287,0.10603 12.49077,0.67352 -0.19948,0.53378 -28.84323,77.91554 -63.65278,171.95947 l -63.29008,170.98897 -3.1645,-0.20196 c -1.74048,-0.11108 -8.88023,-0.46175 -15.86611,-0.77928 z"
       style="fill:#800080;stroke-width:1.05483" />
    <path
       transform="scale(0.26458333)"
       inkscape:connector-curvature="0"
       id="path104"
       d="m 222.27187,463.69616 -30.7016,-0.31454 -1.77117,-6.57702 C 176.31826,406.74521 99.785372,115.75236 100.03278,115.49567 c 0.50525,-0.52423 59.46006,5.42 60.57213,6.1073 0.52846,0.32661 18.85364,60.39782 40.7226,133.49159 21.86897,73.09377 40.10758,133.53823 40.53023,134.32103 0.47961,0.88827 26.22331,-48.9366 68.48668,-132.55044 l 67.71823,-133.97371 9.71159,-0.71853 c 5.34137,-0.39518 11.15379,-0.55661 12.91647,-0.35873 l 3.20487,0.3598 -66.67411,170.88322 -66.6741,170.88322 -8.78695,0.0351 c -4.83282,0.0193 -22.60266,-0.1064 -39.48855,-0.27941 z"
       style="fill:#000080;stroke-width:1.05483" />
    <path
       transform="scale(0.26458333)"
       inkscape:connector-curvature="0"
       id="path106"
       d="m 458.66625,324.12484 c -5.80159,-0.41638 -12.80306,-0.81281 -15.55881,-0.88095 l -5.01047,-0.1239 v -10.97678 -10.97678 l -5.01046,-0.5908 c -2.75576,-0.32493 -10.35057,-0.89603 -16.87736,-1.2691 l -11.86689,-0.67832 0.0144,-12.80643 c 0.0217,-19.24811 -1.66942,-17.5532 17.5134,-17.5532 h 16.22691 v -17.40477 -17.40477 h 16.34994 16.34994 v 15.82252 15.82252 h 18.4596 18.45961 v 16.71375 16.71375 l -18.60496,-0.51179 -18.60495,-0.51178 0.50051,13.86082 c 0.34809,9.63984 0.15143,13.80788 -0.64578,13.68694 -0.63046,-0.0956 -5.89304,-0.51455 -11.69463,-0.93093 z"
       style="fill:#000080;stroke-width:1.05483" />
    <path
       transform="scale(0.26458333)"
       inkscape:connector-curvature="0"
       id="path108"
       d="m 570.47873,324.12484 c -5.80159,-0.41638 -13.0404,-0.81281 -16.08623,-0.88095 l -5.53788,-0.1239 v -10.98305 -10.98305 l -3.95563,-0.5769 c -2.1756,-0.3173 -9.81868,-0.88905 -16.98461,-1.27056 l -13.02898,-0.69365 0.63467,-3.17336 c 0.34907,-1.74534 0.63467,-8.57278 0.63467,-15.17209 v -11.99875 h 16.34994 16.34994 v -17.40477 -17.40477 h 16.34993 16.34994 v 15.82252 15.82252 h 18.45961 18.45961 v 16.67425 16.67425 l -18.1959,-0.451 -18.1959,-0.45099 0.36964,13.83953 c 0.2033,7.61175 -0.034,13.76129 -0.52742,13.66565 -0.49338,-0.0956 -5.64381,-0.51455 -11.4454,-0.93093 z"
       style="fill:#000080;stroke-width:1.05483" />
    <path
       transform="scale(0.26458333)"
       inkscape:connector-curvature="0"
       id="path110"
       d="m 376.38914,460.68881 c -18.64085,-1.82443 -27.23687,-2.82883 -29.35472,-3.42993 -2.3883,-0.67787 -1.529,-2.51836 24.70614,-52.91662 l 27.18049,-52.21432 10.88558,0.11086 c 21.86848,0.2227 42.72771,8.68102 56.80616,23.03464 7.16965,7.30979 9.99841,11.95787 12.77898,20.99775 8.98557,29.213 -15.05018,54.63916 -58.95356,62.36383 -9.13178,1.60671 -35.87633,2.85368 -44.04907,2.05379 z m 50.67681,-19.51832 c 24.09453,-7.44029 32.98501,-31.38801 19.31463,-52.02652 -6.26744,-9.46211 -19.58552,-16.44675 -31.36013,-16.44675 h -4.92211 l -13.80822,34.01842 c -15.78514,38.88884 -15.63317,35.02612 -1.44137,36.63482 10.48677,1.18871 24.34473,0.25102 32.2172,-2.17997 z"
       style="fill:#800080;stroke-width:1.05483" />
    <path
       transform="scale(0.26458333)"
       inkscape:connector-curvature="0"
       id="path112"
       d="m 607.92536,456.86169 c -7.83215,-0.53281 -14.52501,-1.2941 -14.87302,-1.69176 -0.34802,-0.39766 -1.9673,-12.82725 -3.59841,-27.62131 -1.6311,-14.79405 -3.07968,-27.04934 -3.21904,-27.23396 -0.13937,-0.18463 -9.13308,6.69817 -19.98603,15.2951 -10.85295,8.59693 -19.95122,15.63079 -20.21839,15.63079 -0.26716,0 -4.2871,-8.7815 -8.93319,-19.51445 -4.64609,-10.73294 -8.83422,-19.91415 -9.30696,-20.40268 -0.47274,-0.48853 -1.3619,0.69816 -1.97591,2.63709 -0.8817,2.78426 -15.50194,51.66881 -17.66151,59.05345 -0.38978,1.33283 -2.89713,2.02442 -10.88882,3.0034 -5.71034,0.69951 -11.08327,1.107 -11.93985,0.90553 -1.25948,-0.29624 0.76912,-9.40192 10.60423,-47.59871 l 12.16164,-47.23241 14.21785,0.29226 14.21784,0.29226 6.67068,15.2951 c 3.66887,8.41231 7.1827,15.16716 7.80852,15.01078 0.62581,-0.15638 8.07925,-6.08983 16.56319,-13.18544 l 15.42535,-12.9011 16.15783,-0.37642 c 15.16419,-0.35327 16.1601,-0.25597 16.19447,1.58225 0.0201,1.07727 2.0688,21.77638 4.55259,45.99802 2.94598,28.72901 4.12508,43.98574 3.39159,43.88515 -0.61841,-0.0848 -7.5325,-0.59013 -15.36465,-1.12294 z"
       style="fill:#800080;stroke-width:1.05483" />
    <path
       inkscape:export-ydpi="44.828323"
       inkscape:export-xdpi="44.828323"
       style="fill:#800080;stroke-width:0.27909"
       d="m 83.419335,254.88233 -3.36063,-0.15274 17.63856,-45.21285 17.638555,-45.21286 3.40082,-0.0786 c 1.98861,-0.046 3.36097,0.0281 3.30485,0.1782 -0.0528,0.14123 -7.63144,20.61516 -16.84147,45.49761 l -16.745505,45.24083 -0.83727,-0.0534 c -0.4605,-0.0294 -2.34956,-0.12217 -4.19791,-0.20618 z"
       id="path102-1"
       inkscape:connector-curvature="0" />
    <path
       inkscape:export-ydpi="44.828323"
       inkscape:export-xdpi="44.828323"
       style="fill:#000080;stroke-width:0.27909"
       d="m 66.655895,254.66496 -8.12313,-0.0832 -0.46863,-1.74017 c -3.566803,-13.2449 -23.816129,-90.23676 -23.750669,-90.30468 0.13368,-0.1387 15.73214,1.43404 16.026376,1.61589 0.139821,0.0864 4.988358,15.98026 10.774523,35.31965 5.78616,19.3394 10.6118,35.33199 10.72362,35.53911 0.1269,0.23502 6.93825,-12.94781 18.12044,-35.07064 l 17.917115,-35.44721 2.56953,-0.19011 c 1.41323,-0.10456 2.9511,-0.14727 3.41748,-0.0949 l 0.84795,0.0952 -17.640855,45.21286 -17.64086,45.21285 -2.32488,0.009 c -1.27868,0.005 -5.98029,-0.0282 -10.44801,-0.0739 z"
       id="path104-9"
       inkscape:connector-curvature="0" />
    <path
       inkscape:export-ydpi="44.828323"
       inkscape:export-xdpi="44.828323"
       style="fill:#000080;stroke-width:0.27909"
       d="m 129.20191,217.73672 c -1.535,-0.11017 -3.38748,-0.21506 -4.1166,-0.23309 l -1.32569,-0.0328 v -2.90427 -2.90427 l -1.32568,-0.15632 c -0.72913,-0.086 -2.73859,-0.23708 -4.46547,-0.33578 l -3.13978,-0.17948 0.004,-3.38836 c 0.006,-5.09273 -0.4417,-4.64429 4.63375,-4.64429 h 4.29337 v -4.60501 -4.60501 h 4.32592 4.32592 v 4.18637 4.18638 h 4.8841 4.88411 v 4.42218 4.42218 l -4.92256,-0.13541 -4.92256,-0.13541 0.13243,3.66734 c 0.0921,2.55054 0.0401,3.65334 -0.17087,3.62134 -0.1668,-0.0253 -1.5592,-0.13614 -3.0942,-0.24631 z"
       id="path106-9"
       inkscape:connector-curvature="0" />
    <path
       inkscape:export-ydpi="44.828323"
       inkscape:export-xdpi="44.828323"
       style="fill:#000080;stroke-width:0.27909"
       d="m 158.78563,217.73672 c -1.53501,-0.11017 -3.45028,-0.21506 -4.25615,-0.23309 l -1.46523,-0.0328 v -2.90593 -2.90593 l -1.0466,-0.15264 c -0.57562,-0.084 -2.59786,-0.23523 -4.49384,-0.33617 l -3.44725,-0.18353 0.16792,-0.83962 c 0.0924,-0.46179 0.16792,-2.26821 0.16792,-4.01428 v -3.17467 h 4.32593 4.32592 v -4.60501 -4.60502 h 4.32592 4.32592 v 4.18638 4.18638 h 4.8841 4.88411 v 4.41173 4.41172 l -4.81433,-0.11932 -4.81434,-0.11933 0.0978,3.66171 c 0.0538,2.01394 -0.009,3.64101 -0.13954,3.6157 -0.13054,-0.0253 -1.49326,-0.13614 -3.02826,-0.2463 z"
       id="path108-7"
       inkscape:connector-curvature="0" />
    <path
       inkscape:export-ydpi="44.828323"
       inkscape:export-xdpi="44.828323"
       style="fill:#800080;stroke-width:0.27909"
       d="m 107.43276,253.86927 c -4.93206,-0.48272 -7.20643,-0.74846 -7.766775,-0.90751 -0.63191,-0.17935 -0.40455,-0.66631 6.536835,-14.00085 l 7.19151,-13.81504 2.88014,0.0293 c 5.78603,0.0589 11.30504,2.29685 15.02996,6.09458 1.89697,1.93405 2.64541,3.16385 3.3811,5.55566 2.37744,7.72927 -3.98202,14.45661 -15.59812,16.50043 -2.41612,0.4251 -9.49228,0.75503 -11.65465,0.54339 z m 13.40824,-5.16423 c 6.37501,-1.96857 8.72728,-8.30474 5.11033,-13.76535 -1.65826,-2.50351 -5.18201,-4.35153 -8.29737,-4.35153 h -1.30231 l -3.65342,9.00071 c -4.17649,10.28933 -4.13628,9.26732 -0.38137,9.69296 2.77463,0.31451 6.44121,0.0664 8.52414,-0.57679 z"
       id="path110-9"
       inkscape:connector-curvature="0" />
    <path
       inkscape:export-ydpi="44.828323"
       inkscape:export-xdpi="44.828323"
       style="fill:#800080;stroke-width:0.27909"
       d="m 168.69338,252.85667 c -2.07226,-0.14097 -3.84308,-0.34239 -3.93515,-0.44761 -0.0921,-0.10521 -0.52052,-3.39387 -0.95208,-7.30814 -0.43156,-3.91425 -0.81483,-7.1568 -0.85171,-7.20565 -0.0369,-0.0488 -2.41646,1.77223 -5.28797,4.04683 -2.87151,2.27461 -5.27876,4.13565 -5.34945,4.13565 -0.0707,0 -1.13429,-2.32344 -2.36357,-5.1632 -1.22928,-2.83976 -2.33739,-5.26895 -2.46247,-5.39821 -0.12507,-0.12926 -0.36033,0.18472 -0.52279,0.69773 -0.23328,0.73667 -4.10155,13.67071 -4.67294,15.62456 -0.10313,0.35264 -0.76653,0.53563 -2.881,0.79465 -1.51086,0.18508 -2.93245,0.29289 -3.15909,0.23959 -0.33323,-0.0784 0.2035,-2.48759 2.80571,-12.59383 l 3.21776,-12.49691 3.76181,0.0773 3.7618,0.0773 1.76496,4.04683 c 0.97072,2.22576 1.90042,4.01298 2.066,3.9716 0.16558,-0.0414 2.13763,-1.61126 4.38234,-3.48864 l 4.08129,-3.41342 4.2751,-0.0996 c 4.01219,-0.0935 4.27569,-0.0677 4.28478,0.41864 0.005,0.28502 0.54737,5.76166 1.20454,12.17031 0.77946,7.60121 1.09143,11.63789 0.89736,11.61128 -0.16362,-0.0224 -1.99297,-0.15614 -4.06523,-0.29712 z"
       id="path112-0"
       inkscape:connector-curvature="0" />
    <rect
       inkscape:export-ydpi="44.828323"
       inkscape:export-xdpi="44.828323"
       y="136.76097"
       x="31.421062"
       height="144.82574"
       width="144.82574"
       id="rect144"
       style="fill:none;stroke:#000000;stroke-width:0.225402" />
  </g>
</svg>
